<svg width="30" height="30" viewBox="0 0 30 30" fill="none" xmlns="http://www.w3.org/2000/svg">
<g clip-path="url(#clip0_20_53)">
<path d="M13.0961 0.0878897C10.3891 0.439452 7.91056 1.47656 5.74259 3.15234C5.05705 3.68555 3.89103 4.83398 3.32267 5.53711C1.70548 7.54102 0.633219 9.9082 0.176188 12.4863C0.0121257 13.4004 -0.0523275 15.5977 0.0531413 16.5996C0.53361 21.0879 3.01213 25.125 6.82658 27.6152C8.72502 28.8516 10.8637 29.6309 13.184 29.918C14.0746 30.0293 15.9496 30.0234 16.8754 29.9121C23.6723 29.0684 29.0688 23.6719 29.9125 16.875C30.0297 15.9258 30.0297 14.0742 29.9125 13.125C29.3735 8.76563 26.9301 4.85742 23.2328 2.42578C21.3051 1.16016 19.1606 0.374999 16.8754 0.0878897C15.9848 -0.0175791 13.9399 -0.0175791 13.0961 0.0878897ZM18.9028 6.50391C19.7699 6.58008 20.3617 6.73828 21.0356 7.07227C21.5043 7.30078 21.6742 7.42969 22.1254 7.875C22.5707 8.32617 22.6996 8.49609 22.9281 8.96484C23.5258 10.1719 23.5727 10.6699 23.5375 15.4688C23.5199 18.9551 23.5082 19.2246 23.3969 19.7227C22.9692 21.5977 21.7797 22.8691 20.0219 23.3145C19.2133 23.5254 18.4399 23.5605 15.0004 23.5605C10.682 23.5605 10.1313 23.502 8.96525 22.9277C8.4965 22.6992 8.32658 22.5703 7.87541 22.125C7.43009 21.6738 7.30119 21.5039 7.07267 21.0352C6.49845 19.8691 6.44572 19.3594 6.44572 15C6.44572 10.6406 6.49845 10.1309 7.07267 8.96484C7.30119 8.49609 7.42424 8.32617 7.87541 7.88086C8.60783 7.1543 9.26408 6.81445 10.3891 6.58594C11.2035 6.42188 17.268 6.36328 18.9028 6.50391Z" fill="white"/>
<path d="M11.3965 7.96875C10.2305 8.05078 9.48633 8.33203 8.90039 8.91796C8.31445 9.50976 8.0625 10.2012 7.96875 11.4727C7.89844 12.4394 7.89844 17.5605 7.96875 18.5273C8.0625 19.793 8.32031 20.4961 8.91211 21.0879C9.5332 21.7148 10.1953 21.9375 11.6602 22.0371C12.9082 22.1191 18.6738 22.0723 19.2129 21.9785C20.8242 21.6855 21.6855 20.8242 21.9785 19.2129C22.0723 18.6738 22.1191 12.9082 22.0371 11.6602C21.9375 10.1777 21.7207 9.53906 21.0879 8.9121C20.4844 8.30859 19.7988 8.05664 18.4922 7.96875C17.5898 7.90429 12.3281 7.91015 11.3965 7.96875ZM20.0449 9.52734C20.4199 9.7207 20.6719 10.2363 20.5664 10.5996C20.3379 11.4082 19.4766 11.6602 18.9082 11.0918C18.1172 10.3008 19.0488 9.01757 20.0449 9.52734ZM16.2012 10.7812C16.9687 11.0215 17.4961 11.3437 18.0762 11.9238C18.6621 12.5098 18.9785 13.0312 19.2246 13.8281C19.4238 14.4609 19.4238 15.5391 19.2246 16.1719C18.9785 16.9687 18.6621 17.4902 18.0762 18.0762C17.4902 18.6621 16.9687 18.9785 16.1719 19.2246C15.5391 19.4238 14.4609 19.4238 13.8281 19.2246C13.0312 18.9785 12.5098 18.6621 11.9238 18.0762C11.3379 17.4902 11.0215 16.9687 10.7754 16.1719C10.5762 15.5391 10.5762 14.4609 10.7754 13.8281C11.2207 12.3809 12.3047 11.2676 13.6992 10.8105C14.2031 10.6465 14.5254 10.6113 15.1758 10.6348C15.5859 10.6465 15.9258 10.6992 16.2012 10.7812Z" fill="white"/>
<path d="M14.0801 12.2461C13.3125 12.498 12.6035 13.166 12.2988 13.9277C12.1816 14.2207 12.1582 14.3672 12.1582 15C12.1582 15.627 12.1816 15.7793 12.293 16.0664C12.5801 16.7754 13.2246 17.4199 13.9336 17.707C14.2207 17.8184 14.373 17.8418 15 17.8418C15.627 17.8418 15.7793 17.8184 16.0664 17.707C16.7754 17.4199 17.4199 16.7754 17.707 16.0664C17.8184 15.7793 17.8418 15.627 17.8418 15C17.8418 14.373 17.8184 14.2207 17.707 13.9336C17.4199 13.2246 16.7695 12.5742 16.0664 12.2988C15.5801 12.1055 14.5898 12.082 14.0801 12.2461Z" fill="white"/>
</g>
<defs>
<clipPath id="clip0_20_53">
<rect width="30" height="30" fill="white"/>
</clipPath>
</defs>
</svg>
