<svg width="25" height="25" viewBox="0 0 25 25" fill="none" xmlns="http://www.w3.org/2000/svg">
<g clip-path="url(#clip0_20_53)">
<path d="M10.9137 0.0732532C8.65785 0.366222 6.59242 1.23048 4.78578 2.62696C4.21449 3.0713 3.24281 4.02833 2.76918 4.61427C1.42152 6.28419 0.527968 8.25685 0.147108 10.4053C0.0103895 11.167 -0.0433214 12.9981 0.0445692 13.833C0.44496 17.5733 2.51039 20.9375 5.6891 23.0127C7.27113 24.043 9.05336 24.6924 10.987 24.9317C11.7291 25.0244 13.2916 25.0195 14.0631 24.9268C19.7272 24.2236 24.2243 19.7266 24.9274 14.0625C25.025 13.2715 25.025 11.7285 24.9274 10.9375C24.4782 7.3047 22.442 4.04786 19.361 2.0215C17.7545 0.966808 15.9674 0.312511 14.0631 0.0732532C13.3209 -0.0146375 11.6168 -0.0146375 10.9137 0.0732532ZM15.7526 5.41993C16.4752 5.48341 16.9684 5.61525 17.5299 5.89357C17.9205 6.084 18.0621 6.19142 18.4381 6.56251C18.8092 6.93849 18.9166 7.08009 19.1071 7.47071C19.6051 8.47657 19.6442 8.89161 19.6149 12.8906C19.6002 15.7959 19.5905 16.0205 19.4977 16.4356C19.1412 17.9981 18.15 19.0576 16.6852 19.4287C16.0114 19.6045 15.3668 19.6338 12.5006 19.6338C8.90199 19.6338 8.44301 19.585 7.47133 19.1065C7.0807 18.916 6.9391 18.8086 6.56312 18.4375C6.19203 18.0615 6.08461 17.9199 5.89418 17.5293C5.41566 16.5576 5.37172 16.1328 5.37172 12.5C5.37172 8.8672 5.41566 8.44239 5.89418 7.47071C6.08461 7.08009 6.18715 6.93849 6.56312 6.56739C7.17348 5.96193 7.72035 5.67872 8.65785 5.48829C9.33656 5.35157 14.3903 5.30275 15.7526 5.41993Z" fill="white"/>
<path d="M9.49707 6.64062C8.52539 6.70898 7.90527 6.94335 7.41699 7.43164C6.92871 7.9248 6.71875 8.50097 6.64062 9.56054C6.58203 10.3662 6.58203 14.6338 6.64062 15.4394C6.71875 16.4941 6.93359 17.0801 7.42676 17.5732C7.94433 18.0957 8.49609 18.2812 9.71679 18.3643C10.7568 18.4326 15.5615 18.3936 16.0107 18.3154C17.3535 18.0713 18.0713 17.3535 18.3154 16.0107C18.3935 15.5615 18.4326 10.7568 18.3642 9.71679C18.2812 8.48144 18.1006 7.94921 17.5732 7.42675C17.0703 6.92382 16.499 6.71386 15.4101 6.64062C14.6582 6.58691 10.2734 6.59179 9.49707 6.64062ZM16.7041 7.93945C17.0166 8.10058 17.2266 8.53027 17.1387 8.833C16.9482 9.50683 16.2305 9.71679 15.7568 9.24316C15.0976 8.58398 15.874 7.51464 16.7041 7.93945ZM13.501 8.98437C14.1406 9.18457 14.5801 9.45312 15.0635 9.93652C15.5518 10.4248 15.8154 10.8594 16.0205 11.5234C16.1865 12.0508 16.1865 12.9492 16.0205 13.4766C15.8154 14.1406 15.5518 14.5752 15.0635 15.0635C14.5752 15.5518 14.1406 15.8154 13.4766 16.0205C12.9492 16.1865 12.0508 16.1865 11.5234 16.0205C10.8594 15.8154 10.4248 15.5518 9.93652 15.0635C9.44824 14.5752 9.18457 14.1406 8.97949 13.4766C8.81347 12.9492 8.81347 12.0508 8.97949 11.5234C9.35058 10.3174 10.2539 9.38964 11.416 9.00878C11.8359 8.87207 12.1045 8.84277 12.6465 8.8623C12.9883 8.87207 13.2715 8.91601 13.501 8.98437Z" fill="white"/>
<path d="M11.7334 10.2051C11.0938 10.4151 10.5029 10.9717 10.249 11.6065C10.1514 11.8506 10.1318 11.9727 10.1318 12.5C10.1318 13.0225 10.1514 13.1494 10.2441 13.3887C10.4834 13.9795 11.0205 14.5166 11.6113 14.7559C11.8506 14.8487 11.9775 14.8682 12.5 14.8682C13.0225 14.8682 13.1494 14.8487 13.3887 14.7559C13.9795 14.5166 14.5166 13.9795 14.7559 13.3887C14.8486 13.1494 14.8682 13.0225 14.8682 12.5C14.8682 11.9776 14.8486 11.8506 14.7559 11.6114C14.5166 11.0205 13.9746 10.4785 13.3887 10.2491C12.9834 10.0879 12.1582 10.0684 11.7334 10.2051Z" fill="white"/>
</g>
<defs>
<clipPath id="clip0_20_53">
<rect width="25" height="25" fill="white"/>
</clipPath>
</defs>
</svg>
