<svg width="30" height="31" viewBox="0 0 30 31" fill="none" xmlns="http://www.w3.org/2000/svg">
<path d="M13.5735 0.956942C9.81265 1.34444 6.46838 3.02948 3.89857 5.82418C0.272684 9.76377 -0.941814 15.4765 0.753789 20.6197C1.52238 22.9505 2.73688 24.8998 4.51462 26.6494C6.87321 28.9685 9.73637 30.36 13.1628 30.8473C13.861 30.9471 16.1668 30.9413 16.8884 30.8415C20.3266 30.3659 23.2895 28.8981 25.6715 26.485C28.0418 24.0837 29.4324 21.2361 29.9252 17.7721C30.0249 17.0793 30.0249 14.7661 29.9252 14.0732C29.6436 12.0946 29.0686 10.3098 28.1944 8.73044C27.5079 7.47987 26.71 6.41131 25.6715 5.36036C23.3364 2.99426 20.4322 1.52645 17.0938 1.03327C16.3721 0.927586 14.2893 0.880616 13.5735 0.956942ZM22.0222 10.0162C22.2803 10.1278 22.4035 10.3744 22.4035 10.7854C22.4035 11.1611 19.9217 22.9505 19.7926 23.2089C19.6049 23.5729 19.2001 23.7079 18.7894 23.5553C18.6486 23.5024 17.2932 22.5219 15.3102 21.0483L14.8173 20.6842L13.7554 21.7C12.975 22.4397 12.6347 22.7333 12.4939 22.7627C12.3883 22.7861 12.2886 22.792 12.2768 22.7744C12.2592 22.7568 12.3003 21.9055 12.3707 20.8721L12.4939 19.0051L12.9105 18.6234C13.1334 18.4121 14.7234 16.9736 16.4366 15.4236C18.1557 13.8678 19.558 12.5643 19.558 12.5174C19.558 12.4528 19.4934 12.4293 19.3526 12.4352C19.1825 12.441 18.3141 12.9636 14.7938 15.177C12.4059 16.6859 10.417 17.9189 10.3818 17.9189C10.2233 17.9189 6.52118 16.727 6.34517 16.6214C5.96967 16.3865 6.05181 16.0401 6.53879 15.7642C6.66786 15.6937 7.60074 15.3121 8.61575 14.9246C9.63077 14.5312 11.5493 13.7914 12.8694 13.2806C14.1954 12.7698 16.554 11.8598 18.1205 11.2551C21.5528 9.92817 21.5176 9.93991 21.6877 9.93404C21.7581 9.93404 21.9107 9.96927 22.0222 10.0162Z" fill="white"/>
</svg>
