<svg width="30" height="30" viewBox="0 0 30 30" fill="none" xmlns="http://www.w3.org/2000/svg">
<path d="M15 0C6.71625 0 0 6.71625 0 15C0 23.2837 6.71625 30 15 30C23.2837 30 30 23.2837 30 15C30 6.71625 23.2837 0 15 0ZM22.9513 19.9587L20.6163 19.9913C20.6163 19.9913 20.1125 20.09 19.4537 19.635C18.58 19.035 17.7562 17.4738 17.1137 17.6763C16.4625 17.8838 16.4825 19.2887 16.4825 19.2887C16.4825 19.2887 16.4875 19.5362 16.3387 19.6975C16.1775 19.8712 15.8613 19.8537 15.8613 19.8537H14.815C14.815 19.8537 12.5075 20.045 10.4737 17.925C8.25875 15.6138 6.30125 11.0525 6.30125 11.0525C6.30125 11.0525 6.18625 10.765 6.30875 10.6175C6.4475 10.455 6.82125 10.45 6.82125 10.45L9.32125 10.4375C9.32125 10.4375 9.55625 10.4787 9.72625 10.6037C9.865 10.7062 9.94375 10.8987 9.94375 10.8987C9.94375 10.8987 10.3475 11.9225 10.8837 12.85C11.9287 14.6575 12.4138 15.0537 12.7688 14.86C13.2863 14.5775 13.1313 12.305 13.1313 12.305C13.1313 12.305 13.1412 11.48 12.8712 11.1125C12.6612 10.8263 12.2663 10.7413 12.0938 10.72C11.9525 10.7013 12.1825 10.3737 12.4825 10.2262C12.9325 10.0062 13.7275 9.99375 14.6662 10.0025C15.3975 10.01 15.6088 10.055 15.8938 10.125C16.7563 10.3338 16.4637 11.1388 16.4637 13.07C16.4637 13.6888 16.3525 14.5588 16.7975 14.845C16.99 14.9688 17.4588 14.8637 18.6275 12.8712C19.1838 11.9262 19.6 10.8162 19.6 10.8162C19.6 10.8162 19.6912 10.6188 19.8325 10.5338C19.9775 10.4463 20.1725 10.4737 20.1725 10.4737L22.8038 10.4575C22.8038 10.4575 23.5938 10.3625 23.7225 10.7212C23.8575 11.0962 23.4275 11.9725 22.3525 13.4063C20.5875 15.7613 20.3913 15.5425 21.8575 16.905C23.2575 18.2063 23.5462 18.8388 23.595 18.9188C24.1737 19.8825 22.9513 19.9587 22.9513 19.9587Z" fill="white"/>
</svg>
